-------------------------------------------------
File Name    : Predators[2010]R5.LiNE{V2}-LW
Type         : Movie
Format       : AVI
File Size    : 761 MB
Duration     : 01:37:31
Language     : English
Source       : R5.LiNE{v2}
Subtitles    : None
Genre        : Action | Adventure | Sci-Fi | Thriller
IMDB Link    : http://www.imdb.com/title/tt1424381/
Downloaded   : http://2reply.in
-------------------------------------------------

Format                           : MPEG-4 Visual
Format profile                   : Advanced Simple@L5
Format settings, BVOP            : Yes
Format settings, QPel            : No
Format settings, GMC             : No warppoints
Format settings, Matrix          : Default (H.263)
Muxing mode                      : Packed bitstream
Codec ID                         : XVID
Codec ID/Hint                    : XviD
Duration                         : 1h 37mn
Bit rate                         : 954 Kbps
Width                            : 680 pixels
Height                           : 272 pixels
Display aspect ratio             : 2.500
Frame rate                       : 25.000 fps
Resolution                       : 8 bits
Colorimetry                      : 4:2:0
Scan type                        : Progressive
Bits/(Pixel*Frame)               : 0.206
Stream size                      : 665 MiB (87%)
Writing library                  : XviD 1.2.1
-------------------------------------------------

Format                           : MPEG Audio
Format version                   : Version 1
Format profile                   : Layer 3
Codec ID                         : 55
Codec ID/Hint                    : MP3
Duration                         : 1h 37mn
Bit rate mode                    : Constant
Bit rate                         : 128 Kbps
Channel(s)                       : 2 channels
Sampling rate                    : 44.1 KHz
Stream size                      : 89.3 MiB (12%)
Alignment                        : Split accross interleaves
Interleave, duration             : 40 ms (1.00 video frame)
Interleave, preload duration     : 500 ms
-------------------------------------------------

Rugged mercenary Royce (Adrien Brody) inherits
command of an elite team of human fighters --
including dorky-but-dangerous Edwin (Topher Grace)
and tough-but-beautiful Isabelle (Alice Braga) --
as they are hunted by a race of ruthless alien
trackers known as Predators. Director Nimród Antal's
sci-fi action explosion, which also stars Laurence
Fishburne and an uzi-toting Danny Trejo, is a direct
sequel to the 1987 blockbuster Predator.

Cast: Adrien Brody, Topher Grace

Director: Nimród Antal
-------------------------------------------------